<?xml version="1.0" encoding="UTF-8"?>
<svg id="Layer_1" data-name="Layer 1" xmlns="http://www.w3.org/2000/svg" viewBox="0 0 247.26 33.91">
  <defs>
    <style>
      .cls-1 {
        fill: #e9313e;
      }

      .cls-2 {
        fill: #fdd707;
      }

      .cls-3 {
        fill: #17a24a;
      }

      .cls-4 {
        fill: #add7f2;
      }

      .cls-5 {
        fill: #000103;
      }

      .cls-6 {
        fill: #febe10;
      }

      .cls-7 {
        fill: #fcc80d;
      }

      .cls-8 {
        fill: #8eb4e0;
      }

      .cls-9 {
        fill: #327243;
      }

      .cls-10 {
        fill: #fefeff;
      }

      .cls-11 {
        fill: #e82e3c;
      }

      .cls-12 {
        fill: #58bc6d;
      }

      .cls-13 {
        fill: #83bde7;
      }

      .cls-14 {
        fill: #ec434f;
      }

      .cls-15 {
        fill: #50ba6f;
      }

      .cls-16 {
        fill: #ffe24f;
      }

      .cls-17 {
        fill: #cb8251;
      }

      .cls-18 {
        fill: #eb8623;
      }

      .cls-19 {
        fill: #e56c25;
      }

      .cls-20 {
        fill: #a56b44;
      }

      .cls-21 {
        fill: #f4ad1c;
      }

      .cls-22 {
        fill: #4fa7d6;
      }
    </style>
  </defs>
  <g>
    <path class="cls-17" d="m75.61,8.28c0,6.6.03,13.21-.02,19.81,0,1.07-.77,1.8-1.85,1.8-8.74.03-17.47.03-26.21,0-1.06,0-1.83-.73-1.84-1.79-.05-6.79-.02-13.57-.02-20.36.86,1.03,1.74,1.31,2.86.27.52-.48,1.21-.27,1.7.27.44.47.86.97,1.29,1.45,1.83,2.04,1.9,2.04,3.86.13.66-.64,1.39-.65,2.02.02.85.92,1.63.88,2.41-.06.42-.51.85-.97,1.6-.78h.02c.5.32,1,.64,1.49.95.01,0,.02,0,.03.02,1.19.19,1.58-.82,2.2-1.48.73-.77,1.45-.81,2.22-.06.66.65,1.36.67,2.02.02.79-.77,1.51-.74,2.26.06.61.65,1.01,1.64,2.18,1.45.01,0,.02-.01.03-.02.86-.3,1.14-1.16,1.74-1.73Zm-16.52,6.67c-.09-.97-.62-1.55-1.57-1.54-.94,0-1.52.59-1.52,1.54,0,.95.59,1.52,1.54,1.52.94,0,1.46-.58,1.55-1.52Zm-7.76,10.82c-.11-.87-.55-1.48-1.54-1.49-.97,0-1.53.57-1.55,1.5-.02.96.57,1.55,1.53,1.56.94,0,1.46-.57,1.55-1.57Zm12.94-3.06c-.1-.95-.61-1.56-1.57-1.55-.91.01-1.5.55-1.51,1.51-.01.99.58,1.54,1.52,1.56.95.02,1.44-.6,1.56-1.52Zm6.17-10.88c-.9.12-1.5.58-1.5,1.56,0,.97.57,1.52,1.51,1.53.95.01,1.53-.57,1.54-1.51.01-.96-.58-1.48-1.56-1.58Zm.55,14.46c.05.65.39,1.04,1.01,1.05.63,0,1.04-.39,1.04-1.02,0-.63-.38-1.02-1.03-1.01-.64,0-.95.39-1.01.99Zm-2.65-9.79c-.58.06-.96.39-.96,1.02,0,.63.39,1.01,1,1.02.62,0,1.03-.37,1.03-1.02,0-.64-.39-.98-1.08-1.02Zm-19.04,5.67c.59-.06.98-.37.98-1.01,0-.63-.37-1.02-.99-1.03-.64-.01-1.04.37-1.04,1.01,0,.64.38.99,1.05,1.03Zm4.09-8.28c-.05-.61-.38-.99-1.01-1-.65,0-1.03.4-1.02,1.02,0,.62.38,1.01,1.01,1.01.64,0,.99-.38,1.03-1.04Zm6.22,9.32c-.05-.29-.2-.49-.51-.5-.31,0-.5.17-.5.48,0,.33.17.52.5.52.31,0,.46-.21.52-.51Zm0,1.56c-.3.03-.49.19-.5.49-.01.3.17.5.47.52.3.01.5-.14.52-.46.02-.33-.16-.5-.49-.55Zm4.66-11.39c-.06-.31-.23-.5-.55-.48-.31.02-.47.22-.46.53.02.31.2.49.51.47.3-.02.46-.21.5-.52Zm-2.59-1.04c-.04-.31-.21-.49-.52-.48-.31,0-.5.19-.49.5,0,.3.2.5.5.5.32,0,.48-.22.51-.52Zm.53,14c-.04-.31-.2-.53-.52-.53-.31,0-.48.18-.49.5,0,.31.16.49.48.5.31,0,.47-.19.53-.47Zm8.79-7.27c-.3.05-.5.2-.5.51,0,.3.17.5.49.5.33,0,.51-.18.51-.5,0-.31-.21-.45-.5-.51Zm-19.66-.5c-.28.02-.48.17-.49.48,0,.32.19.52.51.52.3,0,.49-.2.49-.5,0-.31-.18-.48-.51-.5Zm-3.59-6.22c-.31.04-.51.19-.52.5,0,.32.18.51.51.5.31,0,.49-.18.49-.5,0-.32-.2-.46-.48-.51Zm22.22,15.01c-.05-.31-.2-.53-.53-.52-.3,0-.48.19-.48.51,0,.31.18.49.49.49.31,0,.46-.2.52-.48Zm-15.51-1.58c-.05-.26-.19-.47-.51-.48-.31,0-.49.16-.5.48-.01.31.16.5.46.52.33.02.49-.19.54-.52Zm18.09-8.24c-.28.03-.48.17-.49.49,0,.31.18.5.47.51.32.01.52-.18.52-.5,0-.3-.18-.48-.51-.5Zm-23.27,0c-.3.03-.48.19-.48.5,0,.31.19.5.49.5.32,0,.51-.2.51-.51,0-.3-.19-.47-.51-.48Zm0-6.76c-.03-.29-.2-.48-.5-.49-.3,0-.5.19-.5.49,0,.31.19.51.51.51.31,0,.47-.19.49-.51Zm3.64,17.59c.31-.04.48-.2.48-.52,0-.32-.18-.49-.49-.49-.31,0-.48.19-.48.5,0,.32.19.47.49.5Z"/>
    <path class="cls-15" d="m61.41,9.05c-.75-.19-1.18.27-1.6.78-.77.94-1.55.98-2.41.06-.63-.68-1.36-.67-2.02-.02-1.96,1.9-2.03,1.91-3.86-.13-.43-.48-.85-.97-1.29-1.45-.49-.53-1.18-.75-1.7-.27-1.12,1.04-2,.76-2.86-.27-.01-.03-.02-.06-.03-.09,0-.58.02-1.16.02-1.75.14-.94.67-1.53,1.58-1.77.06-.02.12-.03.18-.05.04,0,.08,0,.12,0,.02-.02.04-.04.06-.06,0-.04-.01-.07-.02-.11-.01-.03-.02-.05-.03-.08-.01-.07-.02-.15-.03-.22-.01-.03-.02-.05-.03-.08,0-.04,0-.07-.01-.11-.02-.04-.03-.09-.05-.13-.2-.76-.54-1.46-1.03-2.07-.05-.07-.1-.14-.15-.21.09,0,.18,0,.27,0,.05.01.09.02.14.03.07.01.15.02.22.03.03,0,.05.02.08.03,1.55.37,2.66,1.28,3.38,2.69.06.13.21.27.33.29.25.04.54.11.67-.26.07-.19.21-.37.33-.54.56-.76,1.26-1.35,2.13-1.72-.23.62-.47,1.24-.7,1.86-.01.03-.02.05-.03.08,0,.05-.02.11-.03.16-.01.03-.02.05-.03.08-.1.3.03.36.32.36,1.04-.02,2.08-.08,3.11.02.91.08,1.06-.29.9-1.04,0-.03-.02-.06-.02-.08,0-.07-.02-.15-.03-.22-.01-.04-.03-.09-.04-.13-.21-.52-.43-1.03-.64-1.55.07-.01.15-.03.22-.04,1.62.33,2.71,1.3,3.4,2.77.06.12.24.22.39.25.06.01.21-.17.24-.28.43-1.45,1.28-2.59,2.56-3.4.24-.15.52-.26.77-.39-.06.25-.11.5-.17.75-.01.03-.02.05-.03.08-.01.07-.02.15-.03.22,0,.03-.02.05-.03.08,0,.08-.02.15-.02.23,0,.03-.01.05-.02.08-.02.15-.03.31-.05.46,0,.03,0,.06-.01.08,0,.33,0,.67-.01,1,.01.09.02.17.03.26,0,.12.02.23.03.35,0,.03.02.06.02.08.01.09.02.19.04.28.01.03.02.05.03.08,1.38.06,2.76.37,3.88-.95.6-.7,1.05-.62,1.08-.22,0,0-.01.02-.01.03,0,.02.01.04.02.05.02.17.03.35.05.52,0,0,0,.02,0,.03,0,.02.01.04.02.05,0,.07.02.15.03.22,0,.03.02.06.03.08.05.08.11.22.14.22,1.17-.18,2.58.63,3.38-1.02.35-.73,1.14-1.18,1.92-1.49-.26.72-.51,1.44-.77,2.16-.01.05-.03.09-.04.14.06.08.11.16.17.24.06.02.12.03.18.05.92.24,1.44.83,1.58,1.77,0,.75.02,1.49.03,2.24-.01.04-.02.09-.03.13-.59.56-.88,1.43-1.74,1.73-.02,0-.03,0-.03.02-1.17.19-1.58-.8-2.18-1.45-.75-.8-1.47-.83-2.26-.06-.66.65-1.36.63-2.02-.02-.77-.75-1.48-.71-2.22.06-.62.65-1.02,1.66-2.2,1.48,0-.02-.02-.02-.03-.02-.5-.32-1-.63-1.49-.95,0,0,0-.01,0-.01h-.01Z"/>
    <path class="cls-9" d="m75.65,8.15c0-.75-.02-1.49-.03-2.24,0,.75.02,1.49.03,2.24Z"/>
    <path class="cls-9" d="m45.67,5.91c0,.58-.01,1.16-.02,1.75,0-.58.02-1.16.02-1.75Z"/>
    <path class="cls-9" d="m63.85,3.25c-.01-.09-.02-.17-.03-.26.01.09.02.17.03.26Z"/>
    <path class="cls-9" d="m74.04,4.14c-.06-.02-.12-.03-.18-.05.06.02.12.03.18.05Z"/>
    <path class="cls-9" d="m47.43,4.1c-.06.02-.12.03-.18.05.06-.02.12-.03.18-.05Z"/>
    <path class="cls-9" d="m56.84,1.05c-.07.01-.15.03-.22.04,0,0,.01,0,.01,0,0-.03.01-.05.02-.08.06.01.13.03.19.04Z"/>
    <path class="cls-9" d="m73.69,3.86s.03-.09.04-.14c-.01.05-.03.09-.04.14Z"/>
    <path class="cls-9" d="m47.44,3.3s.03.09.05.13c-.02-.04-.03-.09-.05-.13Z"/>
    <path class="cls-9" d="m57.26,2.64s.03.09.04.13c-.01-.04-.03-.09-.04-.13Z"/>
    <path class="cls-15" d="m56.64,1.01s-.01.05-.02.08c-.02,0-.04-.02-.05-.03.02-.02.05-.03.07-.05Z"/>
    <path class="cls-9" d="m46.66,1.04s-.09-.02-.14-.03c.05.01.09.02.14.03Z"/>
    <path class="cls-9" d="m63.99.83s.02-.05.03-.08c-.01.03-.02.05-.03.08Z"/>
    <path class="cls-9" d="m47.61,4.03s-.04.04-.06.06c.02-.02.04-.04.06-.06Z"/>
    <path class="cls-9" d="m63.97,4.04s-.02-.05-.03-.08c.01.03.02.05.03.08Z"/>
    <path class="cls-9" d="m47.57,3.84s.02.05.03.08c-.01-.03-.02-.05-.03-.08Z"/>
    <path class="cls-9" d="m69.06,3.86s-.02-.05-.03-.08c0,.03.02.06.03.08Z"/>
    <path class="cls-9" d="m53.03,3.74s.02-.05.03-.08c-.01.03-.02.05-.03.08Z"/>
    <path class="cls-9" d="m63.9,3.68s-.02-.06-.02-.08c0,.03.02.06.02.08Z"/>
    <path class="cls-9" d="m47.5,3.54s.02.05.03.08c-.01-.03-.02-.05-.03-.08Z"/>
    <path class="cls-9" d="m69,3.55s-.02-.03-.02-.05c0,0,0-.02,0-.03,0,.02.02.03.02.05,0,0,0,.02,0,.03Z"/>
    <path class="cls-9" d="m53.08,3.5s.02-.05.03-.08c-.01.03-.02.05-.03.08Z"/>
    <path class="cls-9" d="m63.93,1.13s.02-.05.03-.08c0,.03-.02.05-.03.08Z"/>
    <path class="cls-9" d="m57.33,2.99s.02.06.02.08c0-.03-.02-.06-.02-.08Z"/>
    <path class="cls-9" d="m68.94,2.95s-.02-.03-.02-.05c0,0,0-.02.01-.03,0,.03,0,.05,0,.08Z"/>
    <path class="cls-9" d="m63.83,1.99s0-.06.01-.08c0,.03,0,.06-.01.08Z"/>
    <path class="cls-9" d="m63.89,1.44s.01-.05.02-.08c0,.03-.01.05-.02.08Z"/>
    <path class="cls-9" d="m46.96,1.1s-.05-.02-.08-.03c.03,0,.05.02.08.03Z"/>
    <path class="cls-20" d="m59.09,14.95c-.09.95-.61,1.52-1.55,1.52-.94,0-1.53-.57-1.54-1.52,0-.95.58-1.54,1.52-1.54.95,0,1.48.57,1.57,1.54Z"/>
    <path class="cls-20" d="m51.34,25.77c-.09,1-.61,1.57-1.55,1.57-.96,0-1.55-.6-1.53-1.56.02-.93.58-1.51,1.55-1.5.98,0,1.42.62,1.54,1.49Z"/>
    <path class="cls-20" d="m64.28,22.71c-.12.92-.61,1.54-1.56,1.52-.94-.02-1.53-.57-1.52-1.56.01-.96.6-1.5,1.51-1.51.96-.01,1.47.6,1.57,1.55Z"/>
    <path class="cls-20" d="m70.45,11.83c.97.1,1.57.62,1.56,1.58,0,.94-.59,1.52-1.54,1.51-.94-.01-1.51-.57-1.51-1.53,0-.98.59-1.44,1.5-1.56Z"/>
    <path class="cls-20" d="m70.99,26.29c.06-.59.37-.98,1.01-.99.65,0,1.04.38,1.03,1.01,0,.63-.4,1.03-1.04,1.02-.62,0-.96-.4-1.01-1.05Z"/>
    <path class="cls-20" d="m68.34,16.5c.69.04,1.07.38,1.08,1.02,0,.65-.41,1.03-1.03,1.02-.61,0-1-.39-1-1.02,0-.63.38-.96.96-1.02Z"/>
    <path class="cls-20" d="m49.3,22.17c-.67-.05-1.06-.39-1.05-1.03,0-.64.41-1.02,1.04-1.01.62.01.99.4.99,1.03,0,.64-.39.95-.98,1.01Z"/>
    <path class="cls-20" d="m53.39,13.89c-.04.66-.39,1.04-1.03,1.04-.63,0-1.01-.39-1.01-1.01,0-.63.37-1.03,1.02-1.02.63,0,.96.38,1.01,1Z"/>
    <path class="cls-20" d="m59.61,23.21c-.06.3-.2.51-.52.51-.33,0-.51-.2-.5-.52,0-.31.19-.49.5-.48.31,0,.46.21.51.5Z"/>
    <path class="cls-20" d="m59.61,24.77c.32.05.51.22.49.55-.02.32-.22.48-.52.46-.31-.01-.49-.21-.47-.52.01-.3.21-.46.5-.49Z"/>
    <path class="cls-20" d="m64.27,13.38c-.04.3-.2.5-.5.52-.31.02-.5-.16-.51-.47-.02-.31.14-.51.46-.53.32-.02.49.18.55.48Z"/>
    <path class="cls-20" d="m61.67,12.34c-.03.31-.19.52-.51.52-.3,0-.49-.2-.5-.5,0-.31.18-.49.49-.5.31,0,.48.17.52.48Z"/>
    <path class="cls-20" d="m62.2,26.34c-.06.28-.21.48-.53.47-.32,0-.48-.19-.48-.5,0-.31.18-.5.49-.5.33,0,.48.21.52.53Z"/>
    <path class="cls-20" d="m70.98,19.08c.28.05.49.19.5.51,0,.33-.18.51-.51.5-.32,0-.49-.2-.49-.5,0-.31.2-.46.5-.51Z"/>
    <path class="cls-20" d="m51.33,18.58c.33.02.51.2.51.5,0,.3-.19.5-.49.5-.32,0-.51-.2-.51-.52,0-.32.2-.46.49-.48Z"/>
    <path class="cls-20" d="m47.73,12.36c.28.05.48.19.48.51,0,.31-.18.49-.49.5-.33,0-.51-.18-.51-.5,0-.31.21-.46.52-.5Z"/>
    <path class="cls-20" d="m69.95,27.37c-.06.28-.2.48-.52.48-.31,0-.48-.18-.49-.49,0-.31.18-.5.48-.51.33,0,.48.2.53.52Z"/>
    <path class="cls-20" d="m54.44,25.79c-.06.33-.22.54-.54.52-.3-.02-.48-.21-.46-.52.01-.31.19-.48.5-.48.31,0,.45.21.51.48Z"/>
    <path class="cls-20" d="m72.53,17.55c.33.02.51.2.51.5,0,.32-.2.51-.52.5-.3-.01-.48-.21-.47-.51,0-.32.2-.46.49-.49Z"/>
    <path class="cls-20" d="m49.26,17.55c.32.01.51.18.51.48,0,.32-.19.52-.51.51-.3,0-.49-.19-.49-.5,0-.31.18-.47.48-.5Z"/>
    <path class="cls-20" d="m49.25,10.79c-.03.32-.18.51-.49.51-.32,0-.51-.2-.51-.51,0-.3.2-.49.5-.49.3,0,.47.2.5.49Z"/>
    <path class="cls-20" d="m52.89,28.38c-.3-.03-.49-.18-.49-.5,0-.32.17-.5.48-.5.31,0,.49.17.49.49,0,.32-.17.48-.48.52Z"/>
    <polygon class="cls-20" points="61.41 9.05 61.43 9.04 61.43 9.05 61.41 9.05"/>
    <path class="cls-20" d="m62.92,10.01s.03,0,.03.02c-.01,0-.02-.01-.03-.02Z"/>
    <path class="cls-20" d="m73.84,10.02s.02-.02.03-.02c-.01,0-.02.01-.03.02Z"/>
  </g>
  <path d="m0,17.62c.02-5.93,4.07-11.54,9.99-13.54,2.24-1.03,3.34-2.46,6.17-1.82,8.46,1.15,2.05,2.12,6,3.41,10.83,4.99,10.32,20.89-.85,25.21C11.69,35.15-.22,27.66,0,17.62Zm15.77,10.92c11.53-.47,14.72-15.55,4.13-20.13-2.07.64-4.27-.42-6.45-.69C.06,7.77.53,28.54,15.77,28.54Zm13.28-10.17c.21-6.11-4.46-12.19-10.95-12.88-.53-.01-2.75-.32-1.54.51,3.4,1.36,7.13,2.59,9.05,5.86,4.72,6.69-.06,16.6-8.53,17.48-8.11,1.43-15.94-6.26-14.1-13.9.92-5.64,6.97-10.42,13.01-8.19,1.2.18-.04-.34-.35-.61-4.91-2.27,1.3-2.38,3.39-2.01.74.05.98-.65.21-.79-.99-.17-1.97-.46-2.98-.53-.77-.02-1.25,1.15-1.99.13-1.04-.73-2.14.76-2.96,1.25C-.94,7.91-2.59,24.36,8.88,29.63c8.62,4.53,20.38-1.85,20.17-11.27Z"/>
  <g>
    <path class="cls-14" d="m137.23,18.91c.14-1.8.94-3.38,1.66-4.98,1.99-4.43,4.9-8.26,7.93-12.02.84-1.03,1.4-.97,2.19.03,3.55,4.45,7.03,8.94,8.84,14.46-.42-.24-.84-.41-1.35-.31-1.73.36-3.46.7-5.18,1.05-.86-1.11-1.74-2.21-2.59-3.33-.56-.75-1.07-.79-1.65-.01-1.01,1.36-2.06,2.69-3.09,4.03-2.3.06-4.49.83-6.77,1.08Z"/>
    <path class="cls-11" d="m151.33,17.14c1.73-.35,3.46-.69,5.19-1.05.51-.11.93.07,1.35.31.4,1.97.96,3.84.49,5.99-.91,4.18-3.29,6.8-7.25,8.14.81-1.04,2.15-1.64,2.51-3.05.7-1.5,1.19-3.01.37-4.63-.38-1.71-1.1-3.26-2.15-4.66-.17-.35-.33-.7-.5-1.05Z"/>
    <path class="cls-1" d="m137.23,18.91c2.27-.25,4.46-1.03,6.77-1.08-.27.59-.55,1.18-.82,1.77-1.07,1.76-1.95,3.57-1.65,5.72.06,1.44.71,2.61,1.71,3.62.47.53.93,1.05,1.4,1.58-4.99-1.62-7.66-5.8-7.4-11.6Z"/>
    <path class="cls-19" d="m144.63,30.51c-.47-.53-.93-1.05-1.4-1.58.87-.07,1.74-.02,2.62-.19,2.57-.5,5.17-.86,7.76-1.27-.36,1.41-1.7,2.01-2.51,3.05-2.16.73-4.32.96-6.48-.02Z"/>
    <path class="cls-7" d="m143.17,19.6c.27-.59.55-1.18.82-1.77,1.03-1.34,2.08-2.68,3.09-4.03.58-.78,1.09-.74,1.65.01.85,1.12,1.72,2.22,2.59,3.33.17.35.33.7.5,1.05-1.8.98-3.82,1.06-5.77,1.4-.94.16-1.93.75-2.89,0Z"/>
    <path class="cls-21" d="m143.17,19.6c.96.75,1.95.16,2.89,0,1.95-.34,3.97-.42,5.77-1.4,1.06,1.39,1.77,2.95,2.15,4.66-.06.29-.14.62-.49.66-4.01.48-7.89,1.84-11.97,1.81-.3-2.15.59-3.96,1.65-5.72Z"/>
    <path class="cls-18" d="m141.52,25.32c4.09.02,7.96-1.33,11.97-1.81.35-.04.42-.36.49-.66.82,1.62.33,3.13-.37,4.63-2.59.41-5.19.77-7.76,1.27-.88.17-1.75.12-2.62.19-1-1-1.64-2.17-1.71-3.62Z"/>
  </g>
  <g>
    <path class="cls-22" d="m121.84,19.58v8.32c-.16.53-.49.9-.99,1.13-.22.1-.44.16-.68.16-.06,0-.12,0-.18,0-8.79,0-17.58,0-26.36,0-.61,0-1.09-.23-1.49-.67-.17-.18-.2-.42-.3-.62v-8.32c.07-.08.17-.09.27-.08,1.08.06,2.03.44,2.85,1.14.44.38.86.77,1.28,1.16,1.5,1.4,3.74,1.51,5.28.66.58-.32,1.05-.77,1.53-1.22.36-.33.72-.66,1.12-.94,1.77-1.21,4.16-1.07,5.78.33.45.39.88.8,1.32,1.2,1.51,1.38,3.74,1.46,5.24.63.57-.31,1.04-.75,1.51-1.19.41-.39.83-.77,1.31-1.08.68-.45,1.44-.64,2.24-.7.1,0,.19,0,.27.08Z"/>
    <path class="cls-13" d="m121.84,19.58c-1.43.02-2.58.63-3.58,1.61-.67.66-1.34,1.32-2.26,1.63-1.79.6-3.41.32-4.85-.94-.64-.56-1.21-1.21-1.96-1.65-1.62-.95-3.68-.83-5.16.31-.69.53-1.28,1.16-1.96,1.7-1.47,1.16-4.05,1.17-5.59-.09-.66-.55-1.25-1.17-1.93-1.69-.81-.61-1.73-.82-2.71-.88v-7.03c.08-.09.18-.1.3-.09.83.06,1.61.28,2.31.76.62.42,1.14.95,1.68,1.45,1.42,1.32,3.05,1.61,4.86,1.01.57-.19,1.05-.56,1.5-.96.41-.36.81-.74,1.22-1.1,1.71-1.5,4.21-1.58,6.02-.2.5.38.94.82,1.4,1.24,1.43,1.33,3.07,1.61,4.89,1,.56-.19,1.03-.56,1.47-.94.41-.36.81-.74,1.22-1.1.81-.71,1.74-1.11,2.81-1.17.12,0,.24,0,.32.09v7.03Z"/>
    <path class="cls-4" d="m121.84,12.55c-1.2.02-2.24.41-3.14,1.22-.74.66-1.41,1.41-2.32,1.86-1.69.85-3.91.49-5.27-.82-.59-.57-1.17-1.14-1.86-1.59-1.62-1.05-4.08-.81-5.49.5-.59.55-1.16,1.13-1.83,1.58-1.68,1.12-3.85,1.06-5.43-.2-.64-.51-1.23-1.08-1.85-1.61-.81-.67-1.77-.92-2.8-.95v-6.74c.18-.31.46-.37.78-.32.77.12,1.46.41,2.08.88.53.41,1.01.87,1.49,1.32,1.76,1.66,4.42,1.61,6.12.13.51-.44.99-.91,1.51-1.34.8-.67,1.73-1.04,2.77-1.06,1.17-.02,2.26.23,3.2,1.01.48.4.94.82,1.39,1.25,1.78,1.69,4.46,1.61,6.14.14.54-.47,1.04-.97,1.6-1.42.58-.47,1.25-.76,1.98-.9.47-.09.74.02.95.37v6.68Z"/>
  </g>
  <g>
    <path class="cls-5" d="m188.89,2.73c-8.81,0-15.07,7.13-14.98,15,.09,8.61,6.63,15.15,15.09,15.1,8.14-.05,14.95-5.96,14.91-15.35-.03-8.55-6.46-14.39-15.01-14.76Z"/>
    <path class="cls-8" d="m188.89,2.73c8.55.36,14.98,6.21,15.01,14.76.04,9.38-6.77,15.3-14.91,15.35-8.46.05-15-6.49-15.09-15.1-.08-7.87,6.17-15.01,14.98-15Zm11.95,14.95c-.36-6.56-5.14-11.73-11.77-11.71-6.39.02-11.64,5.01-11.75,11.69-.1,6.47,5.15,11.79,11.79,11.82,6.49.03,11.55-5.58,11.73-11.8Z"/>
    <path class="cls-10" d="m200.84,17.68c-.18,6.21-5.24,11.83-11.73,11.8-6.63-.03-11.89-5.35-11.79-11.82.11-6.68,5.36-11.67,11.75-11.69,6.63-.02,11.41,5.15,11.77,11.71Zm-3.21-2.04h-11.13v-3.73c-2.38,1.87-4.3,3.8-6.24,5.83,2.06,2.01,3.91,3.97,6.33,5.76v-3.82h11.05v-4.03Z"/>
    <path class="cls-8" d="m197.63,15.64v4.03h-11.05v3.82c-2.42-1.79-4.27-3.75-6.33-5.76,1.95-2.02,3.87-3.96,6.24-5.83v3.73h11.13Z"/>
  </g>
  <g>
    <path class="cls-2" d="m217.53,32.21c.69-3.02,4.18-3.57,7.52-2.19.83-4.37,6.23-5.62,8.98-2.13.42.55.62.83,1.14.21.62-.01,1.25-.03,1.87-.04,2.7,1.28,3.09,1.65,4.27,4.11,1.36-.88,2.87-.52,4.35-.5-.23,1.01-1.05.9-1.78.9-8.28,0-16.56,0-24.85,0-.53,0-1.07.05-1.5-.36Zm12.37-3.79c1.96.14,2.06-1.91.13-1.83-1.77-.09-2.13,1.79-.13,1.83Z"/>
    <path class="cls-12" d="m232.85,10.54c2.99-5.55,8.56-2.82,13.4-4.71-.99,3.87-2.78,7.07-7.13,7.77-3.06.49-5.74.07-6.27-3.07Z"/>
    <path class="cls-12" d="m219.49,23.71c3.49-2.91,5.35-8.49,10.86-7.68,1.51,1.86,2.39,2.47.93,4.77-2.57,4.24-7.31,5.14-11.79,2.91Z"/>
    <path class="cls-12" d="m237.05,28.06c-.62.01-1.25.03-1.87.04,2.99-10.89-4.64-9.38-6.48-19.49.13-1.25-.31-5.05,1.76-4.69.65.23.59.87.39,1.49-1.2,3.4.62,6.71,2.71,9.32.32,1.3,1.53,1.95,2.27,2.95,2.42,3.27,2.26,6.75,1.22,10.38Z"/>
    <path class="cls-6" d="m217.53,32.21c.43.41.98.36,1.5.36,8.28,0,16.56,0,24.85,0,.74,0,1.55.11,1.78-.9.4.22.82.42,1.2.67.33.22.49.57.35.97-.2.65-.94.57-1.49.59-8.96,0-17.93,0-26.89,0-1.19,0-2.05-.23-1.3-1.7Z"/>
    <path class="cls-12" d="m218.87,8c2.84.08,5.87-1.57,8.56.06.16,1.29.32,2.58.48,3.85-3.99,1.58-6.99.17-9.04-3.9Z"/>
    <path class="cls-3" d="m231.89,15.97c.67.77,1.34,1.54,2.01,2.31-1.66,6.75-6.97,10.15-15.2,5.99.08-.44.51-.4.79-.55,4.48,2.23,9.22,1.33,11.79-2.91,1.46-2.3.58-2.91-.93-4.77.51-.02,1.03-.04,1.54-.07Z"/>
    <path class="cls-3" d="m233.56,14.74c-.79-.71-1.18-1.68-1.67-2.59.32-.54.64-1.08.97-1.61.53,3.14,3.21,3.56,6.27,3.07,4.36-.7,6.14-3.91,7.13-7.77.38.01.38.3.36.56-.8,6.65-6.67,10.57-13.05,8.35Z"/>
    <path class="cls-3" d="m218.87,8c2.05,4.08,5.05,5.48,9.04,3.9-.16-1.27-.32-2.56-.48-3.85.42.19.85.37,1.27.56.21,1.36.74,2.61,1.26,3.86-1.49.43-2.77,1.41-4.37,1.58-4.23.43-6.35-2.95-7.92-6.21.46-.22.86-.3,1.21.15Z"/>
    <path class="cls-16" d="m229.9,28.42c-2-.04-1.63-1.92.13-1.83,1.93-.08,1.82,1.97-.13,1.83Z"/>
  </g>
</svg>